<?xml version="1.0" standalone="no"?>
<!DOCTYPE svg PUBLIC "-//W3C//DTD SVG 20010904//EN"
 "http://www.w3.org/TR/2001/REC-SVG-20010904/DTD/svg10.dtd">
<svg version="1.0" xmlns="http://www.w3.org/2000/svg"
 width="1280.000000pt" height="1198.000000pt" viewBox="0 0 1280.000000 1198.000000"
 preserveAspectRatio="xMidYMid meet">
<metadata>
Created by potrace 1.15, written by Peter Selinger 2001-2017
</metadata>
<g transform="translate(0.000000,1198.000000) scale(0.100000,-0.100000)"
fill="#000000" stroke="none">
<path d="M3120 11973 c-34 -13 -65 -54 -116 -155 -29 -59 -69 -122 -88 -141
-41 -41 -138 -74 -336 -113 -194 -38 -314 -87 -419 -172 -207 -168 -766 -1215
-1243 -2327 -189 -441 -298 -720 -430 -1105 -83 -245 -134 -329 -218 -366 -22
-10 -51 -34 -66 -55 -76 -110 -130 -422 -104 -609 14 -104 29 -141 79 -196 53
-56 66 -106 66 -239 -1 -106 -2 -114 -42 -211 -44 -106 -94 -280 -137 -474
-57 -259 -60 -290 -61 -565 0 -277 7 -354 56 -645 34 -203 45 -239 110 -379
35 -73 46 -108 40 -120 -29 -54 -34 -205 -38 -1241 -7 -1561 12 -2311 62
-2503 40 -154 120 -229 295 -276 152 -41 337 -54 1005 -72 506 -13 896 -8
1030 16 164 28 257 92 316 219 40 86 48 138 48 337 0 373 68 1022 112 1075 16
19 36 18 67 -4 42 -29 58 -32 74 -12 19 22 69 27 383 40 799 33 2663 54 3648
41 1323 -18 2128 -38 2326 -57 42 -5 68 -12 79 -24 16 -20 32 -17 74 12 31 22
51 23 67 4 44 -53 112 -702 112 -1075 0 -199 8 -251 48 -337 59 -127 152 -191
316 -219 134 -24 524 -29 1030 -16 668 18 853 31 1005 72 175 47 255 122 295
276 50 192 69 942 62 2503 -4 1036 -9 1187 -38 1241 -6 12 5 47 40 120 65 140
76 176 110 379 49 291 56 368 56 645 -1 275 -4 306 -61 565 -43 194 -93 368
-137 474 -40 97 -41 105 -42 211 0 133 13 183 66 239 50 55 65 92 79 196 26
187 -28 499 -104 609 -15 21 -44 45 -66 55 -84 37 -135 121 -218 366 -239 695
-560 1447 -962 2251 -260 520 -444 843 -600 1055 -128 173 -255 244 -530 298
-198 39 -295 72 -336 113 -19 19 -59 82 -88 141 -30 59 -65 118 -79 131 -28
26 -94 38 -150 27 -48 -9 -57 -40 -57 -189 l0 -119 -202 6 c-463 15 -2271 39
-2908 39 -637 0 -2445 -24 -2907 -39 l-203 -6 0 119 c0 133 -10 178 -43 187
-27 7 -106 6 -127 -1z m4835 -813 c1302 -37 1980 -79 2212 -137 56 -14 69 -22
120 -77 120 -128 298 -426 523 -871 286 -565 511 -1105 575 -1377 19 -83 20
-172 0 -188 -11 -9 -539 -9 -2500 1 -2088 12 -2882 12 -4970 0 -1961 -10
-2489 -10 -2500 -1 -20 16 -19 105 0 188 64 272 289 812 575 1377 225 445 403
743 523 871 51 55 64 63 120 77 272 68 1367 125 2892 151 358 6 2078 -4 2430
-14z m2367 -2877 l1126 -6 5 -21 c3 -12 39 -155 81 -320 290 -1141 375 -2183
260 -3185 -7 -68 -15 -125 -16 -126 -2 -1 -628 2 -1393 7 -1788 12 -6182 12
-7970 0 -765 -5 -1391 -8 -1393 -7 -4 3 -29 233 -42 380 -27 317 -28 925 -1
1250 47 565 137 1090 287 1681 42 165 78 309 81 322 l5 22 667 1 c366 1 1161
5 1766 9 1170 8 4667 4 6537 -7z m-9017 -24 c-15 -47 -95 -354 -126 -484 -18
-77 -34 -141 -34 -142 -1 -2 -37 5 -81 14 -58 12 -138 16 -306 17 -126 1 -228
3 -228 6 0 5 94 377 131 517 l21 82 137 4 c75 1 216 4 314 5 176 2 178 2 172
-19z m10612 14 l201 -6 22 -81 c36 -138 130 -511 130 -516 0 -3 -102 -5 -228
-6 -168 -1 -248 -5 -306 -17 -44 -9 -80 -16 -81 -14 0 1 -16 65 -34 142 -31
130 -111 437 -126 484 -6 20 -3 21 107 21 62 0 204 -3 315 -7z m-10955 -694
c57 -6 104 -12 104 -13 1 0 -9 -64 -22 -141 -81 -471 -158 -1110 -180 -1487
l-7 -116 -31 -6 c-115 -24 -315 -14 -533 25 l-63 11 0 53 c0 71 20 160 75 335
25 80 50 176 56 214 18 113 -8 234 -61 291 -107 115 -118 293 -44 668 12 61
86 120 185 146 107 29 350 38 521 20z m11267 1 c99 -11 168 -28 218 -54 41
-20 90 -78 97 -113 47 -239 60 -423 36 -513 -16 -61 -46 -119 -80 -155 -53
-57 -79 -178 -61 -291 6 -38 31 -134 56 -214 55 -175 75 -264 75 -335 l0 -53
-62 -11 c-219 -39 -419 -49 -534 -25 l-31 6 -7 116 c-22 377 -99 1016 -180
1487 -13 77 -23 141 -22 142 0 1 39 6 86 11 117 13 296 14 409 2z m-3719
-3130 c1372 -11 3277 -38 3450 -49 l105 -6 -70 -8 c-166 -18 -1956 -27 -5595
-27 -3644 0 -5430 9 -5595 27 l-70 8 100 6 c159 10 2125 39 3225 48 1518 12
3023 12 4450 1z m-8230 -468 c0 -131 17 -337 40 -502 138 -957 643 -1333 1940
-1444 441 -38 601 -41 1870 -36 1567 6 2973 6 4540 0 1269 -5 1429 -2 1870 36
477 41 835 117 1105 234 493 215 744 578 835 1210 23 165 40 371 40 502 l0 98
32 0 31 0 -6 -192 c-23 -697 -196 -1170 -530 -1445 -367 -304 -867 -437 -1867
-495 -145 -8 -508 -12 -1115 -12 -1159 1 -4171 1 -5330 0 -607 0 -970 4 -1115
12 -1000 58 -1500 191 -1867 495 -334 275 -507 748 -530 1445 l-6 192 31 0 32
0 0 -98z"/>
<path d="M6223 7975 c-12 -9 -8 -25 26 -95 23 -46 38 -87 33 -92 -4 -4 -29 -1
-56 7 -62 19 -86 19 -86 1 0 -37 209 -65 358 -48 111 13 162 28 162 48 0 18
-24 18 -86 -1 -27 -8 -52 -11 -56 -7 -5 5 10 46 32 92 25 51 37 87 31 93 -13
13 -340 15 -358 2z"/>
<path d="M5974 7936 c-36 -16 -94 -72 -120 -114 -24 -41 -76 -68 -159 -82 -42
-7 -290 -15 -615 -20 -486 -8 -679 -17 -775 -36 -72 -14 -159 -49 -190 -76
-51 -44 -59 -82 -58 -258 1 -129 45 -1271 69 -1787 l7 -143 2267 0 2267 0 7
143 c24 516 68 1658 69 1787 1 176 -7 214 -58 258 -31 27 -118 62 -190 76 -96
19 -289 28 -775 36 -325 5 -573 13 -615 20 -90 15 -132 40 -173 100 -50 72
-101 103 -178 108 -36 3 -64 0 -64 -5 0 -5 30 -27 66 -48 76 -45 94 -60 94
-81 0 -26 -101 -123 -154 -148 -114 -54 -313 -71 -464 -40 -106 22 -170 55
-231 118 -72 77 -71 84 43 151 36 21 66 42 66 47 0 13 -102 9 -136 -6z m1571
-551 c627 -17 996 -19 1084 -5 35 6 66 9 68 6 5 -5 -66 -1893 -73 -1913 -3
-10 -456 -13 -2224 -13 -1768 0 -2221 3 -2224 13 -7 20 -78 1908 -73 1913 2 3
33 0 68 -6 107 -17 681 -9 1814 24 205 6 1006 -4 1560 -19z"/>
<path d="M5090 6460 l0 -570 655 -2 c360 -2 950 -2 1310 0 l655 2 0 570 0 570
-1310 0 -1310 0 0 -570z"/>
<path d="M372 7493 c-30 -14 -82 -75 -82 -95 0 -5 159 -8 354 -8 l354 0 7 43
c3 23 9 50 11 60 5 16 -14 17 -303 17 -265 0 -313 -3 -341 -17z"/>
<path d="M273 7290 l-10 -60 353 0 c395 0 356 -8 369 78 l7 42 -355 0 -354 0
-10 -60z"/>
<path d="M255 7178 c-2 -7 -5 -34 -8 -60 l-5 -48 353 0 352 0 10 60 10 60
-354 0 c-274 0 -355 -3 -358 -12z"/>
<path d="M245 6983 c4 -27 8 -54 10 -60 3 -10 80 -13 340 -13 l335 0 0 23 c0
12 3 39 6 60 l7 37 -352 0 -352 0 6 -47z"/>
<path d="M270 6861 c0 -5 15 -31 33 -57 l32 -49 279 -3 c154 -1 283 1 287 5 3
5 9 32 13 61 l7 52 -326 0 c-182 0 -325 -4 -325 -9z"/>
<path d="M389 6650 l16 -60 242 0 243 0 0 38 c0 20 3 47 6 60 l6 22 -264 0
-265 0 16 -60z"/>
<path d="M400 6462 c0 -15 -4 -42 -9 -60 l-10 -32 238 0 238 0 7 38 c3 20 6
47 6 60 l0 22 -235 0 -235 0 0 -28z"/>
<path d="M361 6288 c-7 -24 -15 -51 -17 -60 -5 -17 12 -18 250 -18 l256 0 0
60 0 60 -238 0 -239 0 -12 -42z"/>
<path d="M307 6110 c-10 -33 -17 -62 -17 -65 0 -3 121 -5 269 -5 l268 0 7 46
c12 93 39 84 -252 84 l-259 0 -16 -60z"/>
<path d="M276 5969 c-3 -17 -6 -44 -6 -60 l0 -29 275 0 c225 0 275 2 275 14 0
7 3 34 6 60 l7 46 -275 0 -275 0 -7 -31z"/>
<path d="M11784 7493 c2 -10 8 -37 11 -60 l7 -43 354 0 c195 0 354 3 354 8 0
4 -11 24 -24 43 -46 67 -57 69 -401 69 -287 0 -306 -1 -301 -17z"/>
<path d="M11815 7308 c13 -86 -26 -78 369 -78 l353 0 -10 60 -10 60 -354 0
-355 0 7 -42z"/>
<path d="M11843 7130 l10 -60 352 0 353 0 -5 48 c-3 26 -6 53 -8 60 -3 9 -84
12 -358 12 l-354 0 10 -60z"/>
<path d="M11864 6993 c3 -21 6 -48 6 -60 l0 -23 335 0 c260 0 337 3 340 13 2
6 6 33 10 60 l6 47 -352 0 -352 0 7 -37z"/>
<path d="M11886 6818 c4 -29 10 -56 13 -61 4 -4 133 -6 287 -5 l279 3 33 49
c17 26 32 52 32 57 0 5 -143 9 -325 9 l-326 0 7 -52z"/>
<path d="M11904 6688 c3 -13 6 -40 6 -60 l0 -38 243 0 242 0 16 60 16 60 -265
0 -264 0 6 -22z"/>
<path d="M11930 6468 c0 -13 3 -40 6 -60 l7 -38 238 0 238 0 -10 32 c-5 18 -9
45 -9 60 l0 28 -235 0 -235 0 0 -22z"/>
<path d="M11950 6270 l0 -60 256 0 c238 0 255 1 250 18 -2 9 -10 36 -17 60
l-12 42 -239 0 -238 0 0 -60z"/>
<path d="M11960 6151 c0 -10 3 -39 6 -65 l7 -46 268 0 c148 0 269 2 269 5 0 3
-7 32 -17 65 l-16 60 -259 0 c-245 0 -258 -1 -258 -19z"/>
<path d="M11970 5986 c0 -7 3 -34 6 -60 l7 -46 273 0 274 0 0 29 c0 16 -3 43
-6 60 l-6 31 -274 0 c-224 0 -274 -2 -274 -14z"/>
</g>
</svg>
